<svg width="2727" height="2419" viewBox="0 0 2727 2419" fill="none" xmlns="http://www.w3.org/2000/svg">
<path d="M2726.33 2419H0V0H2726.33V2419ZM48.6876 2370.35H2677.64V48.6489H48.6876V2370.35Z" fill="#DEC6C2"/>
<path d="M1510.35 2042.01C1493.69 2033.35 1473.67 2028.95 1450.86 2028.95H1376.71C1375.71 2028.95 1374.88 2029.77 1374.88 2030.77V2239.22C1374.88 2240.22 1375.71 2241.04 1376.71 2241.04H1450.86C1473.7 2241.04 1493.73 2236.54 1510.38 2227.67C1527.07 2218.77 1540.01 2206.15 1548.78 2190.2C1557.55 2174.24 1562.03 2155.57 1562.03 2134.67C1562.03 2113.77 1557.59 2094.86 1548.78 2079.01C1539.97 2063.09 1527.03 2050.64 1510.35 2041.98V2042.01ZM1516.09 2134.7C1516.09 2155.37 1510.07 2171.6 1498.2 2182.98C1486.33 2194.39 1469.19 2200.17 1447.31 2200.17H1420.2V2068.93H1447.31C1469.16 2068.93 1486.3 2074.71 1498.2 2086.12C1510.07 2097.5 1516.09 2113.84 1516.09 2134.67V2134.7Z" fill="#DEC6C2"/>
<path d="M1750.93 2082.03C1738.58 2075.23 1724.02 2071.75 1707.64 2071.75C1691.27 2071.75 1676.85 2075.19 1664.22 2082.03C1651.56 2088.88 1641.58 2098.91 1634.53 2111.84C1627.51 2124.73 1623.96 2140.1 1623.96 2157.47C1623.96 2174.83 1627.51 2190.13 1634.53 2202.92C1641.58 2215.78 1651.56 2225.81 1664.22 2232.76C1676.85 2239.67 1691.44 2243.14 1707.64 2243.14C1721.41 2243.14 1734.14 2240.49 1745.49 2235.3C1756.88 2230.04 1766.28 2222.72 1773.5 2213.47C1780.73 2204.22 1785.54 2193.63 1787.75 2181.98C1787.85 2181.43 1787.71 2180.88 1787.37 2180.47C1787.02 2180.05 1786.51 2179.81 1785.96 2179.81H1741.91C1741.05 2179.81 1740.3 2180.4 1740.12 2181.26C1738.47 2188.85 1734.59 2194.94 1728.56 2199.38C1722.47 2203.84 1714.73 2206.08 1705.58 2206.08C1695.29 2206.08 1686.55 2202.78 1679.67 2196.25C1673.1 2190.02 1669.35 2180.29 1668.52 2167.23H1786.54C1787.44 2167.23 1788.19 2166.61 1788.37 2165.72C1789.36 2160.32 1789.88 2155.47 1789.88 2151.24C1789.88 2136.05 1786.47 2122.26 1779.73 2110.33C1772.98 2098.4 1763.32 2088.84 1750.96 2082.03H1750.93ZM1668.52 2145.29C1669.55 2133.43 1673.58 2124.29 1680.5 2118.06C1687.79 2111.53 1696.94 2108.2 1707.64 2108.2C1718.34 2108.2 1727.12 2111.5 1734.31 2118.03C1741.12 2124.22 1744.43 2133.36 1744.25 2145.26H1668.52V2145.29Z" fill="#DEC6C2"/>
<path d="M1961.09 2151.48C1953.28 2148.39 1943.27 2145.53 1930.57 2142.71C1921.22 2140.41 1914.78 2138.62 1910.31 2137.11C1905.83 2135.63 1902.08 2133.57 1899.12 2130.99C1896.37 2128.58 1895.03 2125.46 1895.03 2121.47C1895.03 2116.28 1896.75 2112.29 1900.29 2109.3C1903.87 2106.24 1909.07 2104.69 1915.64 2104.69C1924 2104.69 1930.85 2106.92 1936.01 2111.36C1941.17 2115.79 1944.54 2121.81 1946.02 2129.24C1946.2 2130.1 1946.95 2130.72 1947.81 2130.72H1986.83C1987.38 2130.72 1987.9 2130.48 1988.24 2130.06C1988.59 2129.65 1988.72 2129.1 1988.66 2128.55C1985.63 2111.43 1977.89 2097.57 1965.57 2087.29C1953.25 2077.01 1936.73 2071.79 1916.54 2071.79C1896.34 2071.79 1881.58 2076.39 1870.46 2085.51C1859.25 2094.68 1853.53 2106.79 1853.53 2121.47C1853.53 2132.88 1856.42 2142.03 1862.1 2148.63C1867.71 2155.16 1874.52 2159.94 1882.37 2162.9C1890.08 2165.78 1900.16 2168.64 1912.27 2171.39C1920.91 2173.49 1927.79 2175.38 1932.67 2176.96C1937.25 2178.44 1941.1 2180.6 1944.13 2183.35C1947.02 2185.97 1948.4 2189.27 1948.4 2193.5C1948.4 2198.51 1946.75 2202.47 1943.37 2205.56C1940 2208.66 1934.94 2210.24 1928.37 2210.24C1918.98 2210.24 1911.31 2208.04 1905.56 2203.67C1899.88 2199.41 1896.54 2193.43 1895.65 2185.9C1895.55 2184.97 1894.76 2184.28 1893.83 2184.28H1853.95C1853.4 2184.28 1852.91 2184.52 1852.54 2184.93C1852.19 2185.35 1852.02 2185.9 1852.12 2186.41C1854.94 2204.53 1863.03 2218.7 1876.17 2228.46C1889.22 2238.22 1906.76 2243.18 1928.37 2243.18C1947.26 2243.18 1962.5 2238.67 1973.69 2229.8C1985.04 2220.79 1990.79 2208.9 1990.79 2194.42C1990.79 2182.8 1987.79 2173.42 1981.95 2166.51C1976.16 2159.73 1969.15 2154.71 1961.13 2151.55L1961.09 2151.48Z" fill="#DEC6C2"/>
<path d="M2104.16 2073.82H2062.46C2061.45 2073.82 2060.64 2074.63 2060.64 2075.64V2239.26C2060.64 2240.27 2061.45 2241.08 2062.46 2241.08H2104.16C2105.17 2241.08 2105.99 2240.27 2105.99 2239.26V2075.64C2105.99 2074.63 2105.17 2073.82 2104.16 2073.82Z" fill="#DEC6C2"/>
<path d="M2083.45 2004.16C2075.36 2004.16 2068.69 2006.47 2063.63 2010.97C2058.5 2015.54 2055.92 2021.49 2055.92 2028.71C2055.92 2035.93 2058.5 2041.6 2063.63 2046.21C2068.69 2050.71 2075.36 2053.02 2083.45 2053.02C2091.54 2053.02 2098.25 2050.71 2103.3 2046.21C2108.4 2041.6 2111.01 2035.72 2111.01 2028.71C2111.01 2021.7 2108.43 2015.54 2103.3 2010.97C2098.25 2006.43 2091.57 2004.16 2083.45 2004.16Z" fill="#DEC6C2"/>
<path d="M2346.43 2073.82H2305.07C2304.07 2073.82 2303.25 2074.64 2303.25 2075.64V2101.22C2298.91 2093.41 2292.86 2086.88 2285.12 2081.83C2275 2075.16 2262.72 2071.75 2248.64 2071.75C2234.57 2071.75 2221.74 2075.23 2210.45 2082.07C2199.16 2088.91 2190.25 2098.95 2183.89 2111.91C2177.59 2124.8 2174.39 2140.14 2174.39 2157.47C2174.39 2174.79 2177.59 2190.09 2183.89 2202.99C2190.22 2215.98 2199.16 2226.02 2210.45 2232.83C2221.74 2239.67 2234.57 2243.14 2248.64 2243.14C2262.72 2243.14 2275.03 2239.7 2285.15 2232.93C2292.86 2227.74 2298.91 2221.21 2303.25 2213.37V2239.81C2303.25 2253.8 2299.67 2264.32 2292.58 2271.09C2285.46 2277.9 2275.96 2281.37 2264.3 2281.37C2254.08 2281.37 2245.65 2279.14 2239.18 2274.74C2232.78 2270.37 2228.41 2264.22 2226.17 2256.41C2225.97 2255.62 2225.21 2255.07 2224.42 2255.07H2183.34C2182.79 2255.07 2182.3 2255.31 2181.93 2255.73C2181.58 2256.14 2181.41 2256.69 2181.51 2257.2C2184.75 2276.9 2193.9 2292.68 2208.8 2304.1C2223.63 2315.51 2243.28 2321.32 2267.22 2321.32C2284.39 2321.32 2299.29 2317.78 2311.44 2310.73C2323.62 2303.72 2332.87 2293.89 2339.07 2281.48C2345.16 2269.13 2348.26 2255.11 2348.26 2239.77V2075.6C2348.26 2074.61 2347.43 2073.78 2346.43 2073.78V2073.82ZM2303.21 2157.47C2303.21 2171.25 2299.26 2182.39 2291.48 2190.61C2283.71 2198.76 2273.66 2202.88 2261.65 2202.88C2249.64 2202.88 2239.11 2198.86 2231.65 2190.92C2224.14 2182.94 2220.33 2171.7 2220.33 2157.5C2220.33 2143.3 2224.14 2131.99 2231.65 2123.88C2239.11 2115.86 2249.23 2111.77 2261.62 2111.77C2274 2111.77 2283.67 2115.9 2291.45 2124.05C2299.26 2132.23 2303.21 2143.51 2303.21 2157.5V2157.47Z" fill="#DEC6C2"/>
<path d="M2570.88 2090.67C2559.35 2077.94 2543.66 2071.48 2524.29 2071.48C2511.01 2071.48 2499.1 2074.71 2488.88 2081.07C2481 2085.99 2474.74 2092.45 2470.27 2100.36V2075.71C2470.27 2074.71 2469.44 2073.89 2468.44 2073.89H2426.77C2425.78 2073.89 2424.95 2074.71 2424.95 2075.71V2239.29C2424.95 2240.29 2425.78 2241.12 2426.77 2241.12H2468.44C2469.44 2241.12 2470.27 2240.29 2470.27 2239.29V2152.48C2470.27 2138.66 2473.67 2127.97 2480.42 2120.68C2487.19 2113.32 2496.04 2109.75 2507.43 2109.75C2518.82 2109.75 2527.25 2113.18 2533.54 2119.92C2539.87 2126.73 2543.11 2136.49 2543.11 2148.94V2239.29C2543.11 2240.29 2543.93 2241.12 2544.93 2241.12H2586.29C2587.29 2241.12 2588.11 2240.29 2588.11 2239.29V2144.23C2588.11 2121.44 2582.3 2103.45 2570.81 2090.73L2570.88 2090.67Z" fill="#DEC6C2"/>
<path d="M1148.82 571.479C1165.92 556.901 1174.21 536.135 1174.21 508.046C1174.21 479.957 1166.02 458.882 1149.2 443.926C1132.2 428.833 1104.92 421.166 1068.06 421.166H945.881V593.826H1070.2C1104.98 593.826 1131.44 586.297 1148.82 571.479Z" fill="#DEC6C2"/>
<path d="M1162.38 885.204C1181.13 869.904 1190.25 847.797 1190.25 817.645C1190.25 787.493 1180.92 765.008 1161.72 748.952C1142.18 732.656 1113.52 724.37 1076.6 724.37H945.848V908.789H1077.67C1114.69 908.789 1143.18 900.847 1162.38 885.204Z" fill="#DEC6C2"/>
<path d="M133.159 146.6V1944.51H2595.82V146.6H133.159ZM1425.63 371.897C1425.63 365.777 1430.59 360.826 1436.71 360.826H1583.5C1589.62 360.826 1594.58 365.777 1594.58 371.897V446.228C1613.71 421.921 1636.66 401.671 1663.19 385.821C1700.14 363.749 1741.98 352.541 1787.54 352.541C1793.66 352.541 1798.62 357.492 1798.62 363.611V520.663C1798.62 526.783 1793.66 531.734 1787.54 531.734H1744.84C1643.71 531.734 1594.54 577.116 1594.54 670.426V1041.98C1594.54 1048.1 1589.59 1053.05 1583.46 1053.05H1436.68C1430.55 1053.05 1425.6 1048.1 1425.6 1041.98V371.897H1425.63ZM772.497 289.177C772.497 282.92 777.589 277.831 783.852 277.831H1101.16C1179.68 277.831 1241.21 295.572 1284.11 330.571C1327.64 366.121 1349.73 416.489 1349.73 480.265C1349.73 529.705 1336.45 570.928 1310.3 602.764C1291.99 625.043 1269.45 642.062 1243.1 653.579C1274.96 665.888 1301.8 685.347 1323.17 711.683C1352.14 747.404 1366.83 789.865 1366.83 837.895C1366.83 904.387 1344.12 957.712 1299.32 996.425C1255.04 1034.76 1190.56 1054.18 1107.6 1054.18H933.699C884.943 999.966 830.957 950.526 772.531 906.656V289.211L772.497 289.177ZM491.967 1828.78C480.234 1658.94 373.569 1515.27 224.65 1450.22V1301.73C451.847 1374.24 619.002 1580.86 632.043 1828.72L491.967 1828.78ZM735.164 1828.65C721.607 1521.73 509.791 1266.55 224.65 1187.24V1043.29C587.588 1126.28 860.892 1444.13 875.068 1828.58L735.164 1828.65ZM973.475 1822.6C958.508 1377.19 643.845 1007.94 224.65 909.372V758.441C725.805 859.967 1105.64 1295.47 1121.02 1822.56L973.475 1822.63V1822.6ZM1667.08 1750.6C1621.62 1786.6 1560.03 1804.86 1483.95 1804.86C1397.07 1804.86 1326.26 1784.88 1273.55 1745.51C1220.25 1705.8 1187.43 1648.49 1176 1575.12C1175.45 1571.51 1176.48 1567.87 1178.86 1565.12C1181.23 1562.37 1184.67 1560.75 1188.32 1560.75H1346.7C1353 1560.75 1358.33 1565.46 1359.09 1571.72C1362.6 1600.53 1374.81 1622.5 1396.49 1638.9C1418.37 1655.5 1447.83 1663.89 1483.99 1663.89C1508.8 1663.89 1527.65 1658.12 1540.07 1646.7C1552.36 1635.39 1558.35 1620.92 1558.35 1602.52C1558.35 1587.29 1553.36 1575.36 1543.07 1566.05C1531.54 1555.59 1516.88 1547.38 1499.47 1541.7C1480.51 1535.55 1453.4 1528.12 1418.85 1519.7C1370.3 1508.77 1330.08 1497.35 1299.53 1485.87C1267.56 1473.84 1239.79 1454.31 1217.02 1427.8C1193.62 1400.61 1181.75 1363.2 1181.75 1316.54C1181.75 1256.62 1205.01 1207.25 1250.84 1169.74C1295.95 1132.85 1358.61 1114.14 1437.06 1114.14C1515.51 1114.14 1585.29 1135.25 1635.11 1176.86C1684.9 1218.49 1716.35 1274.6 1728.56 1343.67C1729.22 1347.28 1728.22 1351.03 1725.84 1353.85C1723.47 1356.67 1719.99 1358.28 1716.28 1358.28H1561.41C1555.46 1358.28 1550.36 1354.09 1549.19 1348.28C1543.52 1319.95 1530.68 1297.08 1511.07 1280.27C1491.59 1263.6 1465.51 1255.14 1433.55 1255.14C1408.57 1255.14 1389.19 1260.85 1375.91 1272.12C1363.08 1283.02 1356.85 1297.57 1356.85 1316.54C1356.85 1330.88 1361.6 1341.99 1371.37 1350.51C1382.55 1360.31 1396.9 1368.15 1414.04 1373.86C1432.34 1379.98 1458.49 1387.16 1494 1395.86C1543.24 1406.79 1584.32 1418.59 1615.84 1430.93C1648.53 1443.75 1677.02 1464.28 1700.55 1491.92C1724.71 1520.32 1736.96 1558.69 1736.96 1606.07C1736.96 1665.3 1713.46 1713.95 1667.11 1750.67L1667.08 1750.6ZM2489.05 1795.71C2489.05 1802.14 2483.82 1807.36 2477.39 1807.36H2139.88C2069.07 1807.36 2013.74 1789.73 1975.44 1754.93C1936.8 1719.83 1917.22 1661.52 1917.22 1581.59V1271.33H1785.85C1779.42 1271.33 1774.19 1266.11 1774.19 1259.68V1129.03C1774.19 1122.6 1779.42 1117.38 1785.85 1117.38H2223.7C2230.13 1117.38 2235.36 1122.6 2235.36 1129.03V1259.68C2235.36 1266.11 2230.13 1271.33 2223.7 1271.33H2095.53V1583.79C2095.53 1609.74 2100.27 1627.66 2109.67 1637.01C2119.06 1646.39 2136.23 1651.17 2160.76 1651.17H2477.39C2483.82 1651.17 2489.05 1656.4 2489.05 1662.83V1795.68V1795.71Z" fill="#DEC6C2"/>
</svg>
