<svg width="419" height="269" viewBox="0 0 419 269" fill="none" xmlns="http://www.w3.org/2000/svg">
<g clip-path="url(#clip0_265_11057)">
<path d="M419 224.975H0V0H419V224.975ZM4.19161 220.736H414.808V4.23943H4.19161V220.736ZM309.091 192.446C307.6 191.671 305.826 191.264 303.811 191.264H297.201C297.201 191.264 297.04 191.345 297.04 191.427V210.219C297.04 210.219 297.121 210.382 297.201 210.382H303.811C305.826 210.382 307.64 209.974 309.091 209.159C310.582 208.344 311.711 207.202 312.517 205.775C313.283 204.349 313.686 202.637 313.686 200.761C313.686 198.886 313.283 197.174 312.517 195.748C311.751 194.321 310.582 193.179 309.091 192.405V192.446ZM309.615 200.802C309.615 202.677 309.091 204.145 308.003 205.164C306.955 206.183 305.423 206.713 303.489 206.713H301.071V194.891H303.489C305.423 194.891 306.955 195.421 308.003 196.441C309.051 197.46 309.615 198.927 309.615 200.802ZM330.533 196.074C329.445 195.462 328.155 195.136 326.664 195.136C325.172 195.136 323.923 195.462 322.794 196.074C321.666 196.685 320.779 197.582 320.134 198.764C319.53 199.946 319.207 201.291 319.207 202.881C319.207 204.471 319.53 205.816 320.134 206.958C320.779 208.099 321.666 209.037 322.794 209.648C323.923 210.259 325.213 210.586 326.664 210.586C327.873 210.586 329.042 210.341 330.049 209.893C331.057 209.403 331.903 208.751 332.548 207.936C333.193 207.121 333.636 206.142 333.797 205.082C333.797 205.042 333.797 205.001 333.797 204.96C333.797 204.96 333.717 204.919 333.677 204.919H329.767C329.767 204.919 329.606 204.96 329.606 205.042C329.445 205.735 329.122 206.265 328.558 206.672C328.034 207.08 327.309 207.284 326.502 207.284C325.575 207.284 324.81 206.998 324.205 206.387C323.601 205.816 323.278 204.96 323.198 203.778H333.717C333.717 203.778 333.878 203.737 333.878 203.656C333.959 203.167 333.999 202.718 333.999 202.351C333.999 200.965 333.677 199.742 333.112 198.683C332.508 197.623 331.661 196.767 330.533 196.114V196.074ZM323.198 201.781C323.278 200.721 323.641 199.905 324.245 199.335C324.89 198.764 325.696 198.438 326.664 198.438C327.631 198.438 328.397 198.723 329.042 199.335C329.646 199.905 329.928 200.721 329.928 201.781H323.198ZM349.234 202.31C348.549 202.025 347.662 201.781 346.534 201.536C345.687 201.332 345.123 201.169 344.72 201.047C344.317 200.925 343.994 200.721 343.712 200.476C343.47 200.272 343.349 199.987 343.349 199.62C343.349 199.172 343.511 198.805 343.833 198.519C344.156 198.234 344.599 198.112 345.203 198.112C345.929 198.112 346.574 198.316 347.017 198.723C347.46 199.131 347.783 199.661 347.904 200.354C347.904 200.435 347.984 200.476 348.065 200.476H351.531C351.531 200.476 351.612 200.476 351.652 200.435C351.692 200.395 351.692 200.354 351.652 200.313C351.37 198.764 350.685 197.5 349.597 196.604C348.508 195.666 347.017 195.218 345.244 195.218C343.47 195.218 342.14 195.625 341.133 196.441C340.125 197.256 339.641 198.356 339.641 199.702C339.641 200.721 339.883 201.536 340.407 202.147C340.891 202.718 341.496 203.167 342.221 203.452C342.906 203.696 343.793 203.982 344.881 204.226C345.647 204.43 346.251 204.593 346.695 204.716C347.098 204.838 347.46 205.042 347.702 205.286C347.944 205.531 348.065 205.816 348.065 206.183C348.065 206.631 347.904 206.998 347.622 207.284C347.34 207.569 346.856 207.691 346.292 207.691C345.445 207.691 344.76 207.487 344.276 207.08C343.753 206.713 343.47 206.142 343.39 205.49C343.39 205.409 343.309 205.327 343.229 205.327H339.682C339.682 205.327 339.601 205.327 339.561 205.368C339.561 205.368 339.521 205.449 339.561 205.49C339.803 207.121 340.528 208.384 341.697 209.281C342.866 210.178 344.438 210.586 346.332 210.586C348.025 210.586 349.355 210.178 350.362 209.363C351.37 208.547 351.894 207.487 351.894 206.183C351.894 205.123 351.612 204.308 351.088 203.656C350.564 203.044 349.959 202.596 349.234 202.31ZM361.97 195.299H358.262C358.262 195.299 358.101 195.381 358.101 195.462V210.219C358.101 210.219 358.181 210.382 358.262 210.382H361.97C361.97 210.382 362.131 210.3 362.131 210.219V195.462C362.131 195.462 362.051 195.299 361.97 195.299ZM360.116 189.022C359.39 189.022 358.786 189.225 358.343 189.633C357.899 190.041 357.657 190.571 357.657 191.223C357.657 191.875 357.899 192.364 358.343 192.813C358.786 193.22 359.39 193.424 360.116 193.424C360.841 193.424 361.446 193.22 361.889 192.813C362.333 192.405 362.574 191.875 362.574 191.223C362.574 190.571 362.333 190.041 361.889 189.633C361.446 189.225 360.841 189.022 360.116 189.022ZM383.533 195.299H379.865C379.865 195.299 379.704 195.381 379.704 195.462V197.786C379.301 197.093 378.777 196.481 378.091 196.033C377.205 195.421 376.117 195.136 374.827 195.136C373.537 195.136 372.449 195.462 371.441 196.074C370.434 196.685 369.628 197.582 369.063 198.764C368.499 199.946 368.217 201.291 368.217 202.881C368.217 204.471 368.499 205.816 369.063 206.998C369.628 208.18 370.434 209.077 371.441 209.689C372.449 210.3 373.577 210.626 374.827 210.626C376.076 210.626 377.164 210.3 378.091 209.689C378.777 209.24 379.301 208.629 379.704 207.936V210.3C379.704 211.564 379.381 212.501 378.736 213.113C378.091 213.724 377.245 214.05 376.238 214.05C375.311 214.05 374.585 213.847 374.021 213.439C373.457 213.031 373.054 212.501 372.852 211.768C372.852 211.686 372.771 211.645 372.691 211.645H369.023C369.023 211.645 368.942 211.645 368.902 211.686C368.902 211.686 368.862 211.768 368.902 211.808C369.184 213.602 369.99 214.988 371.32 216.048C372.65 217.067 374.384 217.597 376.52 217.597C378.051 217.597 379.381 217.271 380.469 216.659C381.558 216.007 382.364 215.151 382.928 214.01C383.452 212.909 383.734 211.645 383.734 210.259V195.462C383.734 195.462 383.653 195.299 383.573 195.299H383.533ZM379.704 202.84C379.704 204.063 379.341 205.082 378.656 205.816C377.971 206.55 377.084 206.917 375.996 206.917C374.907 206.917 373.98 206.55 373.336 205.857C372.65 205.123 372.328 204.145 372.328 202.84C372.328 201.536 372.65 200.558 373.336 199.824C374.021 199.09 374.907 198.723 375.996 198.723C377.084 198.723 377.971 199.09 378.656 199.824C379.341 200.558 379.704 201.577 379.704 202.84ZM403.523 196.848C402.516 195.707 401.105 195.136 399.372 195.136C398.203 195.136 397.115 195.421 396.228 195.992C395.543 196.441 394.979 197.011 394.576 197.745V195.503C394.576 195.503 394.495 195.34 394.415 195.34H390.707C390.707 195.34 390.545 195.421 390.545 195.503V210.259C390.545 210.259 390.626 210.422 390.707 210.422H394.415C394.415 210.422 394.576 210.341 394.576 210.259V202.433C394.576 201.169 394.898 200.232 395.463 199.579C396.067 198.927 396.833 198.601 397.881 198.601C398.929 198.601 399.654 198.927 400.218 199.539C400.783 200.15 401.065 201.047 401.065 202.147V210.3C401.065 210.3 401.145 210.463 401.226 210.463H404.894C404.894 210.463 405.055 210.382 405.055 210.3V201.74C405.055 199.702 404.531 198.071 403.523 196.93V196.848ZM202.366 127.305C198.658 127.305 195.797 128.487 193.58 130.892C191.363 133.297 190.275 136.681 190.275 140.92C190.275 145.16 191.404 148.543 193.58 150.907C195.797 153.272 198.658 154.454 202.366 154.454C206.074 154.454 208.815 153.272 211.112 150.826C213.409 148.38 214.578 145.078 214.578 140.961C214.578 136.844 213.409 133.42 211.112 131.015C208.815 128.569 205.953 127.387 202.366 127.387V127.305ZM198.94 88.5796C202.205 88.5796 204.946 87.4382 207.203 85.1147C209.46 82.8319 210.588 79.367 210.588 74.883C210.588 70.399 209.46 66.9748 207.203 64.6513C204.905 62.3278 202.205 61.1864 198.94 61.1864C195.676 61.1864 192.935 62.3278 190.678 64.6513C188.421 66.9748 187.293 70.399 187.293 74.883C187.293 79.367 188.421 82.7912 190.678 85.1147C192.975 87.4382 195.676 88.5796 198.94 88.5796ZM108.982 75.739C107.289 74.3123 104.831 73.6193 101.687 73.6193H90.4421V89.6395H101.768C104.952 89.6395 107.41 88.9465 109.063 87.6013C110.675 86.2561 111.44 84.3402 111.44 81.7313C111.44 79.1224 110.634 77.1658 108.982 75.739ZM14.0661 13.0852V184.578H405.659V13.0852H14.0661ZM298.451 61.3087C300.426 57.1915 303.247 53.9712 306.834 51.77C310.381 49.5687 314.452 48.4681 318.845 48.4681C323.238 48.4681 327.147 49.5687 330.331 51.6884C332.024 52.8298 333.475 54.2158 334.684 55.8056V32.1626H349.959V122.984H334.684V95.4279C333.475 97.0177 332.024 98.4037 330.331 99.5451C327.147 101.706 323.278 102.847 318.845 102.847C314.411 102.847 310.381 101.746 306.834 99.5451C303.287 97.3438 300.466 94.1643 298.451 90.0064C296.476 85.93 295.468 81.0791 295.468 75.6168C295.468 70.1544 296.476 65.3035 298.451 61.2272V61.3087ZM45.5435 174.958C44.5359 160.079 35.266 147.524 22.3284 141.939V129.058C41.9564 135.295 56.4255 153.312 57.5541 174.958H45.5032H45.5435ZM66.4612 174.958C65.2924 147.891 46.5914 125.471 21.6029 118.908V106.434C53.2818 113.282 77.2627 141.165 78.4718 174.958H66.4612ZM87.1775 174.143C85.928 136.314 58.7632 105.13 23.0539 98.1591V85.8077C65.4133 92.9413 97.8983 129.588 99.1881 174.143H87.1775ZM76.5372 102.276C76.0133 102.276 75.5699 101.828 75.5699 101.298V35.7498C75.5699 35.2199 76.0133 34.7715 76.5372 34.7715H103.783C110.513 34.7715 115.834 36.3205 119.501 39.3778C123.25 42.4758 125.144 46.8376 125.144 52.3814C125.144 56.7024 124.015 60.2488 121.758 63.0208C120.186 64.9774 118.252 66.4449 115.995 67.4232C118.735 68.4831 121.033 70.1952 122.887 72.478C125.386 75.576 126.635 79.2855 126.635 83.4434C126.635 89.2318 124.7 93.8789 120.831 97.2215C117.043 100.564 111.481 102.235 104.347 102.235H76.5372V102.276ZM133.205 151.274C135.26 153.598 137.759 154.698 140.862 154.698C143.563 154.698 145.779 154.005 147.513 152.619C149.246 151.193 150.334 149.318 150.858 146.872C150.938 146.423 151.341 146.097 151.785 146.097H165.125C165.407 146.097 165.69 146.22 165.851 146.423C166.012 146.627 166.093 146.913 166.052 147.198C164.924 153.435 162.143 158.449 157.709 162.077C153.276 165.705 147.714 167.539 141.144 167.539C136.187 167.539 131.673 166.438 127.804 164.319C123.894 162.158 120.831 159.019 118.655 155.025C116.519 151.03 115.39 146.301 115.39 140.92C115.39 135.539 116.478 130.77 118.655 126.775C120.831 122.74 123.894 119.601 127.804 117.481C131.673 115.361 136.187 114.302 141.144 114.302C147.714 114.302 153.276 116.136 157.709 119.764C162.143 123.392 164.924 128.406 166.052 134.643C166.093 134.928 166.052 135.213 165.851 135.417C165.69 135.621 165.407 135.743 165.125 135.743H151.785C151.341 135.743 150.938 135.417 150.858 134.969C150.374 132.523 149.286 130.648 147.513 129.221C145.779 127.835 143.563 127.142 140.862 127.142C137.759 127.142 135.26 128.284 133.205 130.566C131.149 132.89 130.101 136.355 130.101 140.92C130.101 145.486 131.149 148.951 133.205 151.274ZM168.309 63.836C168.309 64.366 167.866 64.8144 167.342 64.8144H163.674C154.969 64.8144 150.777 68.7684 150.777 76.8804V100.564C150.777 101.094 150.334 101.543 149.81 101.543H137.195C136.671 101.543 136.227 101.094 136.227 100.564V50.9139C136.227 50.384 136.671 49.9356 137.195 49.9356H149.81C150.334 49.9356 150.777 50.384 150.777 50.9139V57.3954C152.43 55.2756 154.404 53.5228 156.662 52.1368C159.846 50.2209 163.433 49.2426 167.342 49.2426C167.866 49.2426 168.309 49.691 168.309 50.2209V63.8768V63.836ZM176.048 60.6972C178.345 56.6616 181.529 53.5636 185.519 51.4031C189.469 49.2834 194.023 48.2235 198.981 48.2235C203.938 48.2235 208.452 49.2834 212.442 51.4031C216.432 53.5228 219.616 56.6616 221.914 60.6972C224.211 64.7328 225.339 69.5022 225.339 74.883C225.339 80.2638 224.171 85.0332 221.914 89.028C219.616 93.0229 216.432 96.1617 212.442 98.3222C208.492 100.483 203.938 101.543 198.981 101.543C194.023 101.543 189.469 100.442 185.519 98.3222C181.529 96.1617 178.345 93.0636 176.048 89.028C173.75 85.0332 172.622 80.2638 172.622 74.883C172.622 69.5022 173.791 64.7328 176.048 60.6972ZM228.967 165.99C228.967 166.52 228.523 166.968 228 166.968H215.465C214.941 166.968 214.498 166.52 214.498 165.99V159.509C213.248 161.424 211.596 163.055 209.621 164.4C206.477 166.52 202.689 167.58 198.376 167.58C194.064 167.58 190.073 166.479 186.607 164.359C183.141 162.24 180.36 159.101 178.426 155.065C176.491 151.07 175.524 146.301 175.524 140.92C175.524 135.539 176.491 130.811 178.426 126.775C180.36 122.74 183.141 119.601 186.607 117.481C190.073 115.361 194.023 114.261 198.376 114.261C202.729 114.261 206.518 115.321 209.621 117.4C211.596 118.704 213.248 120.335 214.498 122.25V115.851C214.498 115.321 214.941 114.872 215.465 114.872H228C228.523 114.872 228.967 115.321 228.967 115.851V165.949V165.99ZM276.687 163.381C273.221 166.153 268.505 167.58 262.742 167.58C256.132 167.58 250.731 166.031 246.701 163.014C242.63 159.957 240.131 155.514 239.285 149.848C239.244 149.562 239.285 149.277 239.486 149.073C239.647 148.869 239.929 148.747 240.212 148.747H252.303C252.786 148.747 253.19 149.114 253.23 149.603C253.512 151.845 254.439 153.516 256.091 154.78C257.744 156.044 260.001 156.696 262.782 156.696C264.676 156.696 266.127 156.247 267.054 155.351C267.981 154.495 268.465 153.353 268.465 151.926C268.465 150.744 268.102 149.848 267.296 149.114C266.409 148.299 265.281 147.687 263.991 147.239C262.54 146.749 260.485 146.179 257.865 145.527C254.157 144.671 251.094 143.815 248.756 142.918C246.338 141.98 244.202 140.472 242.469 138.434C240.695 136.355 239.768 133.461 239.768 129.833C239.768 125.226 241.542 121.394 245.048 118.5C248.474 115.647 253.27 114.22 259.235 114.22C265.2 114.22 270.52 115.851 274.349 119.071C278.138 122.291 280.556 126.612 281.483 131.952C281.523 132.238 281.483 132.523 281.281 132.727C281.12 132.931 280.838 133.053 280.556 133.053H268.747C268.303 133.053 267.9 132.727 267.82 132.278C267.376 130.077 266.409 128.324 264.918 127.02C263.427 125.715 261.452 125.063 258.993 125.063C257.099 125.063 255.608 125.512 254.6 126.368C253.633 127.224 253.149 128.324 253.149 129.792C253.149 130.892 253.512 131.748 254.237 132.401C255.084 133.175 256.172 133.746 257.502 134.194C258.913 134.683 260.888 135.213 263.588 135.906C267.336 136.762 270.48 137.659 272.858 138.597C275.357 139.575 277.533 141.165 279.306 143.285C281.16 145.486 282.087 148.421 282.087 152.09C282.087 156.655 280.314 160.405 276.767 163.259L276.687 163.381ZM287.77 99.912C287.77 100.442 287.327 100.89 286.803 100.89H274.268C273.745 100.89 273.301 100.442 273.301 99.912V93.4305C272.052 95.3464 270.399 96.977 268.424 98.3222C265.281 100.442 261.492 101.502 257.18 101.502C252.867 101.502 248.877 100.401 245.411 98.2814C241.945 96.1617 239.164 93.0229 237.229 88.9873C235.295 84.9924 234.327 80.2231 234.327 74.8422C234.327 69.4614 235.295 64.7328 237.229 60.6972C239.164 56.6616 241.945 53.5228 245.411 51.4031C248.877 49.2834 252.827 48.1828 257.18 48.1828C261.532 48.1828 265.321 49.2426 268.424 51.3216C270.399 52.626 272.052 54.2566 273.301 56.1724V49.7725C273.301 49.2426 273.745 48.7942 274.268 48.7942H286.803C287.327 48.7942 287.77 49.2426 287.77 49.7725V99.8712V99.912ZM391.311 165.99C391.311 166.52 390.868 166.968 390.344 166.968H317.555C311.791 166.968 307.277 165.501 304.174 162.647C301.03 159.753 299.418 154.943 299.418 148.38V122.821H288.738C288.214 122.821 287.77 122.373 287.77 121.843V111.081C287.77 110.551 288.214 110.103 288.738 110.103H324.366C324.89 110.103 325.334 110.551 325.334 111.081V121.843C325.334 122.373 324.89 122.821 324.366 122.821H313.928V148.543C313.928 150.663 314.331 152.171 315.096 152.946C315.862 153.72 317.273 154.128 319.248 154.128H390.304C390.828 154.128 391.271 154.576 391.271 155.106V166.072L391.311 165.99ZM261.17 61.2679C257.462 61.2679 254.6 62.4501 252.383 64.8551C250.167 67.2602 249.078 70.6436 249.078 74.883C249.078 79.1224 250.207 82.5058 252.383 84.8701C254.6 87.2344 257.462 88.4166 261.17 88.4166C264.878 88.4166 267.618 87.2344 269.916 84.7886C272.213 82.3428 273.382 79.0409 273.382 74.9238C273.382 70.8066 272.213 67.3825 269.916 64.9774C267.618 62.5316 264.757 61.3494 261.17 61.3494V61.2679ZM107.894 60.2896C109.345 59.0259 110.07 57.2323 110.07 54.7865C110.07 52.3407 109.385 50.5063 107.934 49.2018C106.483 47.8974 104.145 47.2044 100.961 47.2044H90.4421V62.2055H101.123C104.105 62.2055 106.402 61.5533 107.894 60.2488V60.2896ZM313.968 85.6039C316.185 87.9682 319.046 89.1503 322.754 89.1503C326.462 89.1503 329.203 87.9682 331.5 85.5223C333.797 83.0765 334.966 79.7747 334.966 75.6575C334.966 71.5404 333.797 68.1162 331.5 65.7112C329.203 63.2653 326.341 62.0832 322.754 62.0832C319.167 62.0832 316.185 63.2653 313.968 65.6704C311.751 68.0755 310.663 71.4589 310.663 75.6983C310.663 79.9377 311.791 83.3211 313.968 85.6854V85.6039Z" fill="white"/>
<path d="M31.6401 254.079C33.0104 255.221 33.8971 256.77 34.2195 258.686H29.907C29.7458 257.83 29.3427 257.137 28.7382 256.647C28.1336 256.158 27.3275 255.914 26.4006 255.914C25.3123 255.914 24.4257 256.321 23.7002 257.137C22.9747 257.952 22.612 259.134 22.612 260.683C22.612 262.232 22.9747 263.414 23.7002 264.229C24.4257 265.045 25.3123 265.452 26.4006 265.452C27.3275 265.452 28.1336 265.208 28.7382 264.719C29.3427 264.229 29.7458 263.536 29.907 262.68H34.2195C33.8568 264.637 33.0104 266.186 31.6401 267.287C30.2697 268.428 28.5367 268.999 26.4812 268.999C24.9093 268.999 23.539 268.673 22.3299 267.98C21.1207 267.287 20.1534 266.349 19.5086 265.085C18.8234 263.822 18.501 262.354 18.501 260.683C18.501 259.012 18.8234 257.503 19.5086 256.24C20.1937 254.976 21.1207 254.039 22.3299 253.346C23.539 252.653 24.9496 252.367 26.4812 252.367C28.5367 252.367 30.2697 252.938 31.6401 254.079Z" fill="white"/>
<path d="M52.9175 253.389C54.1669 254.042 55.1342 255.02 55.8597 256.284C56.5852 257.547 56.9479 259.015 56.9479 260.727C56.9479 262.439 56.5852 263.907 55.8597 265.129C55.1342 266.393 54.1669 267.331 52.9175 268.024C51.6681 268.717 50.2575 269.043 48.7259 269.043C47.1944 269.043 45.7434 268.717 44.5343 268.024C43.3252 267.331 42.3176 266.393 41.5921 265.129C40.8666 263.866 40.5039 262.398 40.5039 260.727C40.5039 259.056 40.8666 257.547 41.5921 256.284C42.3176 255.02 43.2849 254.082 44.5343 253.389C45.7837 252.696 47.1944 252.411 48.7259 252.411C50.2575 252.411 51.7084 252.737 52.9175 253.389ZM45.7837 257.181C44.9776 257.996 44.6149 259.178 44.6149 260.686C44.6149 262.194 45.0179 263.417 45.7837 264.192C46.5898 265.007 47.5571 265.415 48.6856 265.415C49.8141 265.415 50.7814 265.007 51.5875 264.192C52.3936 263.377 52.7563 262.194 52.7563 260.686C52.7563 259.178 52.3533 257.955 51.5875 257.181C50.7814 256.365 49.8141 255.958 48.6856 255.958C47.5571 255.958 46.5898 256.365 45.7837 257.181Z" fill="white"/>
<path d="M88.9525 254.203C90.081 255.426 90.6453 257.138 90.6453 259.38V268.796H86.6149V259.828C86.6149 258.564 86.2924 257.627 85.6879 256.934C85.043 256.282 84.1966 255.915 83.1084 255.915C82.0202 255.915 81.0529 256.282 80.4081 257.015C79.7229 257.749 79.4005 258.809 79.4005 260.154V268.755H75.3701V259.787C75.3701 258.524 75.0476 257.586 74.4431 256.893C73.7982 256.241 72.9518 255.874 71.8636 255.874C70.7754 255.874 69.8081 256.241 69.1633 256.975C68.4781 257.708 68.1557 258.768 68.1557 260.113V268.715H64.085V252.491H68.1557V255.548C68.599 254.488 69.2439 253.673 70.1709 253.102C71.0979 252.531 72.1458 252.246 73.3549 252.246C74.6446 252.246 75.7731 252.572 76.7404 253.184C77.7077 253.795 78.3929 254.692 78.8765 255.874C79.3602 254.773 80.1259 253.877 81.1335 253.224C82.1411 252.572 83.2293 252.246 84.4788 252.246C86.4134 252.246 87.9449 252.858 89.0734 254.08L88.9525 254.203Z" fill="white"/>
<path d="M113.739 252.61V268.834H109.668V265.573C109.224 266.674 108.539 267.53 107.572 268.141C106.605 268.753 105.476 269.079 104.186 269.079C102.333 269.079 100.841 268.467 99.753 267.245C98.6648 266.022 98.1006 264.31 98.1006 262.108V252.692H102.131V261.66C102.131 262.964 102.453 263.943 103.098 264.676C103.743 265.41 104.63 265.736 105.758 265.736C106.927 265.736 107.854 265.369 108.58 264.595C109.305 263.82 109.628 262.761 109.628 261.334V252.733H113.698L113.739 252.61Z" fill="white"/>
<path d="M135.584 254.201C136.672 255.424 137.236 257.136 137.236 259.378V268.794H133.206V259.826C133.206 258.522 132.883 257.544 132.239 256.81C131.594 256.117 130.667 255.75 129.538 255.75C128.41 255.75 127.442 256.117 126.757 256.891C126.072 257.666 125.709 258.726 125.709 260.153V268.754H121.639V252.53H125.709V255.791C126.153 254.69 126.838 253.834 127.805 253.223C128.772 252.611 129.901 252.285 131.191 252.285C133.045 252.285 134.536 252.897 135.624 254.12L135.584 254.201Z" fill="white"/>
<path d="M145.213 246.334C145.657 245.926 146.302 245.723 147.027 245.723C147.753 245.723 148.397 245.926 148.841 246.334C149.284 246.742 149.526 247.312 149.526 247.965C149.526 248.617 149.284 249.147 148.841 249.554C148.397 249.962 147.753 250.166 147.027 250.166C146.302 250.166 145.657 249.962 145.213 249.554C144.77 249.147 144.528 248.617 144.528 247.965C144.528 247.312 144.77 246.742 145.213 246.334ZM149.042 252.612V268.836H144.972V252.612H149.042Z" fill="white"/>
<path d="M169.275 254.079C170.645 255.221 171.532 256.77 171.854 258.686H167.542C167.381 257.83 166.977 257.137 166.373 256.647C165.768 256.158 164.962 255.914 164.035 255.914C162.947 255.914 162.06 256.321 161.335 257.137C160.609 257.952 160.247 259.134 160.247 260.683C160.247 262.232 160.609 263.414 161.335 264.229C162.06 265.045 162.947 265.452 164.035 265.452C164.962 265.452 165.768 265.208 166.373 264.719C166.977 264.229 167.381 263.536 167.542 262.68H171.854C171.492 264.637 170.645 266.186 169.275 267.287C167.904 268.428 166.171 268.999 164.116 268.999C162.544 268.999 161.174 268.673 159.965 267.98C158.755 267.287 157.788 266.349 157.143 265.085C156.458 263.822 156.136 262.354 156.136 260.683C156.136 259.012 156.458 257.503 157.143 256.24C157.829 254.976 158.755 254.039 159.965 253.346C161.174 252.653 162.584 252.367 164.116 252.367C166.171 252.367 167.904 252.938 169.275 254.079Z" fill="white"/>
<path d="M188.665 253.346C189.632 253.998 190.318 254.854 190.721 255.954V252.571H194.751V268.795H190.721V265.412C190.318 266.512 189.632 267.368 188.665 268.02C187.698 268.673 186.529 268.999 185.199 268.999C183.869 268.999 182.62 268.673 181.572 268.02C180.483 267.368 179.637 266.39 179.032 265.126C178.428 263.863 178.105 262.395 178.105 260.683C178.105 258.971 178.428 257.503 179.032 256.24C179.637 254.976 180.483 254.039 181.572 253.346C182.66 252.693 183.869 252.367 185.199 252.367C186.529 252.367 187.698 252.693 188.665 253.346ZM183.385 257.259C182.62 258.115 182.216 259.256 182.216 260.724C182.216 262.191 182.62 263.333 183.385 264.148C184.151 264.963 185.159 265.371 186.448 265.371C187.738 265.371 188.705 264.963 189.511 264.107C190.318 263.251 190.721 262.11 190.721 260.683C190.721 259.256 190.318 258.115 189.511 257.259C188.705 256.403 187.698 255.995 186.448 255.995C185.199 255.995 184.151 256.403 183.385 257.259Z" fill="white"/>
<path d="M214.981 254.08C216.351 255.222 217.238 256.771 217.56 258.687H213.248C213.087 257.831 212.684 257.138 212.079 256.648C211.474 256.159 210.668 255.915 209.741 255.915C208.653 255.915 207.766 256.322 207.041 257.138C206.316 257.953 205.953 259.135 205.953 260.684C205.953 262.233 206.316 263.415 207.041 264.23C207.766 265.046 208.653 265.453 209.741 265.453C210.668 265.453 211.474 265.209 212.079 264.72C212.684 264.23 213.087 263.537 213.248 262.681H217.56C217.198 264.638 216.351 266.187 214.981 267.288C213.611 268.429 211.877 269 209.822 269C208.25 269 206.88 268.674 205.671 267.981C204.462 267.288 203.494 266.35 202.849 265.086C202.164 263.823 201.842 262.355 201.842 260.684C201.842 259.013 202.164 257.504 202.849 256.241C203.535 254.977 204.462 254.039 205.671 253.347C206.88 252.654 208.29 252.368 209.822 252.368C211.877 252.368 213.611 252.939 214.981 254.08Z" fill="white"/>
<path d="M224.857 246.334C225.3 245.926 225.945 245.723 226.671 245.723C227.396 245.723 228.041 245.926 228.484 246.334C228.928 246.742 229.17 247.312 229.17 247.965C229.17 248.617 228.928 249.147 228.484 249.554C228.041 249.962 227.396 250.166 226.671 250.166C225.945 250.166 225.3 249.962 224.857 249.554C224.414 249.147 224.172 248.617 224.172 247.965C224.172 247.312 224.414 246.742 224.857 246.334ZM228.726 252.612V268.836H224.656V252.612H228.726Z" fill="white"/>
<path d="M248.194 253.386C249.443 254.038 250.411 255.017 251.136 256.28C251.862 257.544 252.224 259.012 252.224 260.724C252.224 262.436 251.862 263.903 251.136 265.126C250.411 266.39 249.443 267.327 248.194 268.02C246.944 268.713 245.534 269.039 244.002 269.039C242.471 269.039 241.02 268.713 239.811 268.02C238.602 267.327 237.594 266.39 236.868 265.126C236.143 263.862 235.78 262.395 235.78 260.724C235.78 259.052 236.143 257.544 236.868 256.28C237.594 255.017 238.561 254.079 239.811 253.386C241.06 252.693 242.471 252.408 244.002 252.408C245.534 252.408 246.985 252.734 248.194 253.386ZM241.1 257.177C240.294 257.992 239.932 259.175 239.932 260.683C239.932 262.191 240.335 263.414 241.1 264.189C241.906 265.004 242.874 265.411 244.002 265.411C245.131 265.411 246.098 265.004 246.904 264.189C247.71 263.373 248.073 262.191 248.073 260.683C248.073 259.175 247.67 257.952 246.904 257.177C246.098 256.362 245.131 255.954 244.002 255.954C242.874 255.954 241.906 256.362 241.1 257.177ZM248.355 248.209L241.705 251.389V248.576L248.355 245.07V248.209Z" fill="white"/>
<path d="M273.219 254.201C274.307 255.424 274.871 257.136 274.871 259.378V268.794H270.841V259.826C270.841 258.522 270.518 257.544 269.873 256.81C269.229 256.117 268.302 255.75 267.173 255.75C266.044 255.75 265.077 256.117 264.392 256.891C263.707 257.666 263.344 258.726 263.344 260.153V268.754H259.273V252.53H263.344V255.791C263.787 254.69 264.473 253.834 265.44 253.223C266.407 252.611 267.536 252.285 268.825 252.285C270.679 252.285 272.171 252.897 273.259 254.12L273.219 254.201Z" fill="white"/>
<path d="M300.061 264.676L304.092 252.61H308.444L302.52 268.834H297.562L291.638 252.61H295.991L300.061 264.676Z" fill="white"/>
<path d="M315.096 246.334C315.54 245.926 316.184 245.723 316.91 245.723C317.635 245.723 318.28 245.926 318.724 246.334C319.167 246.742 319.409 247.312 319.409 247.965C319.409 248.617 319.167 249.147 318.724 249.554C318.28 249.962 317.635 250.166 316.91 250.166C316.184 250.166 315.54 249.962 315.096 249.554C314.653 249.147 314.411 248.617 314.411 247.965C314.411 247.312 314.653 246.742 315.096 246.334ZM318.965 252.612V268.836H314.895V252.612H318.965Z" fill="white"/>
<path d="M337.024 253.877C338.193 254.855 338.918 256.2 339.241 257.872H335.412C335.25 257.097 334.928 256.486 334.364 255.997C333.84 255.548 333.114 255.304 332.268 255.304C331.583 255.304 331.019 255.467 330.656 255.793C330.253 256.119 330.092 256.567 330.092 257.138C330.092 257.586 330.253 257.953 330.535 258.239C330.857 258.524 331.22 258.728 331.704 258.891C332.147 259.054 332.832 259.217 333.719 259.462C334.928 259.747 335.936 260.032 336.701 260.318C337.467 260.603 338.112 261.092 338.676 261.744C339.241 262.397 339.482 263.293 339.482 264.394C339.482 265.78 338.958 266.881 337.87 267.777C336.782 268.674 335.371 269.082 333.558 269.082C331.462 269.082 329.809 268.593 328.56 267.655C327.311 266.718 326.545 265.372 326.263 263.619H330.172C330.253 264.435 330.616 265.046 331.22 265.495C331.825 265.943 332.59 266.188 333.558 266.188C334.243 266.188 334.767 266.025 335.13 265.658C335.492 265.332 335.694 264.883 335.694 264.312C335.694 263.864 335.533 263.456 335.21 263.171C334.888 262.886 334.485 262.641 334.041 262.478C333.558 262.315 332.913 262.152 332.026 261.907C330.817 261.622 329.85 261.337 329.124 261.092C328.399 260.807 327.754 260.358 327.23 259.747C326.706 259.135 326.424 258.279 326.424 257.179C326.424 255.793 326.948 254.651 327.996 253.755C329.044 252.858 330.535 252.45 332.389 252.45C334.243 252.45 335.895 252.939 337.064 253.958L337.024 253.877Z" fill="white"/>
<path d="M361.97 252.61V268.834H357.899V265.573C357.456 266.674 356.771 267.53 355.803 268.141C354.836 268.753 353.708 269.079 352.418 269.079C350.564 269.079 349.073 268.467 347.984 267.245C346.896 266.022 346.332 264.31 346.332 262.108V252.692H350.362V261.66C350.362 262.964 350.685 263.943 351.33 264.676C351.975 265.41 352.861 265.736 353.99 265.736C355.159 265.736 356.086 265.369 356.811 264.595C357.537 263.82 357.859 262.761 357.859 261.334V252.733H361.93L361.97 252.61Z" fill="white"/>
<path d="M379.581 253.346C380.548 253.998 381.234 254.854 381.637 255.954V252.571H385.667V268.795H381.637V265.412C381.234 266.512 380.548 267.368 379.581 268.02C378.614 268.673 377.445 268.999 376.115 268.999C374.785 268.999 373.536 268.673 372.488 268.02C371.399 267.368 370.553 266.39 369.948 265.126C369.344 263.863 369.021 262.395 369.021 260.683C369.021 258.971 369.344 257.503 369.948 256.24C370.553 254.976 371.399 254.039 372.488 253.346C373.576 252.693 374.785 252.367 376.115 252.367C377.445 252.367 378.614 252.693 379.581 253.346ZM374.301 257.259C373.536 258.115 373.133 259.256 373.133 260.724C373.133 262.191 373.536 263.333 374.301 264.148C375.067 264.963 376.075 265.371 377.364 265.371C378.654 265.371 379.621 264.963 380.428 264.107C381.234 263.251 381.637 262.11 381.637 260.683C381.637 259.256 381.234 258.115 380.428 257.259C379.621 256.403 378.614 255.995 377.364 255.995C376.115 255.995 375.067 256.403 374.301 257.259Z" fill="white"/>
<path d="M397.599 247.152V268.798H393.528V247.152H397.599Z" fill="white"/>
</g>
<defs>
<clipPath id="clip0_265_11057">
<rect width="419" height="269" fill="white"/>
</clipPath>
</defs>
</svg>
